<svg width="496" height="138" viewBox="0 0 496 138" fill="none" xmlns="http://www.w3.org/2000/svg">
<path d="M0 1.44366V61.7646C0 62.5712 0.448149 63.0194 1.25482 63.0194L29.309 62.9297C30.2053 62.9297 30.6534 62.392 30.3845 61.5853C28.5919 55.0423 23.3038 43.0319 29.6675 43.1215C39.2579 43.2112 63.7268 46.9756 63.7268 22.0585C63.7268 -2.85856 37.5549 0.0992179 1.25482 0.188847C0.448149 0.188847 0 0.636995 0 1.44366ZM24.8275 22.2378C24.8275 15.6948 26.1719 10.4067 30.8327 10.4067C36.0312 10.4067 38.0031 15.6948 38.0031 22.2378C38.0031 28.5119 35.8519 33.8897 30.8327 33.8897C26.1719 33.8897 24.8275 28.3326 24.8275 22.2378Z" fill="currentColor"/>
<path d="M68.7122 1.35404V61.6749C68.7122 62.4816 69.1603 62.9297 69.967 62.9297H130.288C131.095 62.9297 131.543 62.4816 131.543 61.6749V1.35404C131.543 0.547367 131.095 0.0992178 130.288 0.0992178H69.967C69.1603 0.0992178 68.7122 0.547367 68.7122 1.35404ZM95.3323 31.6489C95.3323 14.2607 99.8138 10.1378 105.012 10.1378C111.286 10.1378 113.796 18.2044 113.796 31.0215C113.796 45.7208 110.48 53.7875 104.385 53.7875C99.8138 53.7875 95.3323 52.1742 95.3323 31.6489Z" fill="currentColor"/>
<path d="M203 0.188847L190.721 0.278475C189.825 0.278475 189.466 0.816258 189.645 1.62293C191.169 7.71775 193.499 23.4926 186.777 25.1059C179.427 26.8985 182.206 8.16591 175.125 8.16591C166.521 8.16591 170.106 26.1815 161.77 24.6578C154.779 23.403 160.067 8.16591 161.681 1.62293C161.86 0.816258 161.322 0.278475 160.516 0.278475L142.679 0.188847C141.873 0.188847 141.424 0.636995 141.424 1.44366V61.7646C141.424 62.5712 141.873 63.0194 142.679 63.0194H169.21C170.016 63.0194 170.464 62.4816 170.285 61.6749C168.851 53.5186 168.493 41.5082 175.304 41.5082C182.385 41.5082 182.027 52.3534 180.234 61.6749C180.055 62.4816 180.593 63.0194 181.399 63.0194H203C203.807 63.0194 204.255 62.5712 204.255 61.7646V1.44366C204.255 0.636995 203.807 0.188847 203 0.188847Z" fill="currentColor"/>
<path d="M276.878 17.4874L276.967 1.44366C276.967 0.547367 276.519 0.188847 275.712 0.188847H215.391C214.585 0.188847 214.137 0.636995 214.137 1.44366V61.7646C214.137 62.5712 214.585 63.0194 215.391 63.0194L275.533 62.9297C276.34 62.9297 276.788 62.4816 276.788 61.6749V43.8386C276.788 42.8527 276.16 42.4941 275.354 43.0319C266.122 48.6786 237.709 56.2971 237.709 44.3764C237.709 29.2289 269.707 50.2023 269.707 32.366V26.1815C269.707 25.3748 269.169 24.9267 268.363 25.1059C256.352 27.1674 236.723 27.526 237.709 19.1904C238.785 10.2274 259.041 11.8407 275.443 18.4733C276.25 18.8319 276.878 18.3837 276.878 17.4874Z" fill="currentColor"/>
<path d="M286.849 1.44366V61.7646C286.849 62.5712 287.297 63.0194 288.104 63.0194L303.251 62.9297C304.147 62.9297 304.596 62.392 304.327 61.4957C302.086 54.7734 299.307 39.0882 308.45 38.9986C318.219 38.9089 318.757 51.4571 313.648 61.4957C313.2 62.392 313.559 63.0194 314.544 63.0194H349.321C350.128 63.0194 350.576 62.5712 350.576 61.6749C349.41 45.0934 327.81 44.1075 329.781 38.1023C331.305 33.5311 350.396 38.9089 350.396 18.2941C350.396 -2.85857 325.39 0.0992179 288.104 0.188847C287.297 0.188847 286.849 0.636995 286.849 1.44366ZM303.161 21.2519C303.161 15.6948 305.044 11.1237 308.898 11.1237C313.738 11.1237 315.71 15.6948 315.71 21.2519C315.71 26.7193 313.558 31.2904 308.898 31.2904C305.044 31.2904 303.161 26.54 303.161 21.2519Z" fill="currentColor"/>
<path d="M422.302 17.4874L422.392 1.44366C422.392 0.547367 421.943 0.188847 421.137 0.188847H360.816C360.009 0.188847 359.561 0.636995 359.561 1.44366V61.7646C359.561 62.5712 360.009 63.0194 360.816 63.0194L420.957 62.9297C421.764 62.9297 422.212 62.4816 422.212 61.6749V43.8386C422.212 42.8527 421.585 42.4941 420.778 43.0319C411.546 48.6786 383.134 56.2971 383.134 44.3764C383.134 29.2289 415.132 50.2023 415.132 32.366V26.1815C415.132 25.3748 414.594 24.9267 413.787 25.1059C401.777 27.1674 382.148 27.526 383.134 19.1904C384.209 10.2274 404.466 11.8407 420.868 18.4733C421.674 18.8319 422.302 18.3837 422.302 17.4874Z" fill="currentColor"/>
<path d="M432.273 1.44366L432.363 61.7646C432.363 62.6609 432.811 63.0194 433.707 63.0194C477.895 62.9297 496 62.6608 496 33.1726C496 0.547367 477.716 0.188847 433.618 0.188847C432.721 0.188847 432.273 0.547367 432.273 1.44366ZM460.238 31.6489C460.238 14.0815 462.658 9.9585 467.229 9.9585C473.055 9.9585 476.192 17.9356 476.192 31.0215C476.192 45.8104 472.876 53.9668 467.229 53.9668C463.285 53.9668 460.238 52.443 460.238 31.6489Z" fill="currentColor"/>
<path d="M58.9764 74.8804H1.25482C0.448149 74.8804 0 75.3285 0 76.1352V136.366C0 137.173 0.448149 137.621 1.25482 137.621H61.6653C62.3824 137.621 62.9202 137.173 63.0098 136.366C66.8639 110.105 50.1031 109.029 49.0275 102.755C47.7727 95.316 62.7409 96.033 60.3209 76.1352C60.2312 75.3285 59.6935 74.8804 58.9764 74.8804ZM26.7993 119.068C26.7993 113.511 28.8608 108.94 32.8045 108.94C37.7342 108.94 39.8853 113.511 39.8853 119.068C39.8853 124.535 37.5549 129.106 32.8045 129.106C28.8608 129.106 26.7993 124.266 26.7993 119.068ZM27.606 92.1789C27.606 88.1456 29.309 84.7397 32.9838 84.7397C37.6445 84.7397 39.4371 88.1456 39.4371 92.1789C39.4371 96.1227 37.3756 99.5286 32.9838 99.5286C29.309 99.5286 27.606 96.033 27.606 92.1789Z" fill="currentColor"/>
<path d="M129.601 74.8804L108.717 74.97C107.911 74.97 107.463 75.4182 107.642 76.3145C108.538 82.6782 109.793 104.817 101.009 104.817C92.136 104.817 94.4663 83.933 97.1552 76.3145C97.4241 75.4182 97.0656 74.8804 96.1693 74.8804H69.1907C68.4737 74.8804 68.0255 75.3285 67.9359 76.1352C65.3366 108.671 71.1626 127.762 86.4893 127.762C96.1693 127.762 96.3486 111.808 104.774 116.11C111.137 119.337 102.802 130.809 96.3486 136.187C95.4523 136.904 95.6315 137.621 96.7967 137.621L129.601 137.711C130.408 137.711 130.856 137.263 130.856 136.456V76.1352C130.856 75.3285 130.408 74.8804 129.601 74.8804Z" fill="currentColor"/>
<path d="M203 74.8804H142.679C141.873 74.8804 141.424 75.3285 141.424 76.1352V102.307C141.424 103.203 142.052 103.652 142.948 103.203C162.667 94.5989 175.036 94.8678 176.649 103.831C177.993 111.808 164.639 122.115 142.858 117.186C141.962 117.006 141.424 117.365 141.424 118.261V136.456C141.424 137.263 141.873 137.711 142.679 137.711C179.786 137.711 203.896 136.994 204.255 76.2248C204.255 75.3285 203.807 74.8804 203 74.8804Z" fill="currentColor"/>
<path d="M276.878 92.1789L276.967 76.1352C276.967 75.2389 276.519 74.8804 275.712 74.8804H215.391C214.585 74.8804 214.137 75.3285 214.137 76.1352V136.456C214.137 137.263 214.585 137.711 215.391 137.711L275.533 137.621C276.34 137.621 276.788 137.173 276.788 136.366V118.53C276.788 117.544 276.16 117.186 275.354 117.723C266.122 123.37 237.709 130.989 237.709 119.068C237.709 103.92 269.707 124.894 269.707 107.058V100.873C269.707 100.066 269.169 99.6182 268.363 99.7975C256.352 101.859 236.723 102.217 237.709 93.8819C238.785 84.9189 259.041 86.5323 275.443 93.1649C276.25 93.5234 276.878 93.0752 276.878 92.1789Z" fill="currentColor"/>
<path d="M349.59 91.3723L349.679 76.1352C349.679 75.2389 349.231 74.8804 348.424 74.8804H288.014C287.297 74.8804 286.849 75.3285 286.759 76.0456C285.863 88.8626 285.773 121.936 308.808 111.27C327.362 102.666 331.395 141.117 288.462 117.006C287.566 116.469 286.849 116.738 286.849 117.723V136.456C286.849 137.263 287.297 137.711 288.104 137.711H348.424C349.231 137.711 349.679 137.263 349.679 136.456C350.038 127.583 352.906 90.6552 329.154 100.425C309.525 108.492 307.553 75.7767 347.976 92.3582C348.962 92.7167 349.59 92.2686 349.59 91.3723Z" fill="currentColor"/>
<path d="M389.049 74.8804L360.816 74.7907C360.009 74.7907 359.561 75.1493 359.561 76.0456L359.651 136.366C359.651 137.173 360.099 137.621 360.905 137.621H421.137C421.943 137.621 422.392 137.173 422.392 136.366V76.1352C422.392 75.3285 421.943 74.8804 421.137 74.8804H404.914C404.017 74.8804 403.659 75.4182 403.928 76.3145C405.72 84.3811 410.56 123.46 396.668 123.46C383.582 123.46 387.615 86.1737 390.125 76.2248C390.304 75.4182 389.946 74.8804 389.049 74.8804Z" fill="currentColor"/>
<path d="M495.014 91.3723L495.104 76.1352C495.104 75.2389 494.656 74.8804 493.849 74.8804H433.438C432.721 74.8804 432.273 75.3285 432.184 76.0456C431.287 88.8626 431.198 121.936 454.233 111.27C472.786 102.666 476.819 141.117 433.887 117.006C432.99 116.469 432.273 116.738 432.273 117.723V136.456C432.273 137.263 432.721 137.711 433.528 137.711H493.849C494.656 137.711 495.104 137.263 495.104 136.456C495.462 127.583 498.33 90.6552 474.578 100.425C454.95 108.492 452.978 75.7767 493.401 92.3582C494.387 92.7167 495.014 92.2686 495.014 91.3723Z" fill="currentColor"/>
</svg>